<mxfile host="app.diagrams.net" agent="Mozilla/5.0 (X11; Linux x86_64; rv:137.0) Gecko/20100101 Firefox/137.0" version="26.2.14">
  <diagram name="Página-1" id="IqglfPIRN1ucFhV4_9El">
    <mxGraphModel grid="1" page="1" gridSize="10" guides="1" tooltips="1" connect="1" arrows="1" fold="1" pageScale="1" pageWidth="827" pageHeight="1169" math="0" shadow="0">
      <root>
        <mxCell id="0" />
        <mxCell id="1" parent="0" />
        <mxCell id="1tYZ5-ifi8Nl915vDj6M-8" value="Favoritando obra" style="swimlane;whiteSpace=wrap;html=1;" vertex="1" parent="1">
          <mxGeometry x="-220" y="120" width="450" height="430" as="geometry">
            <mxRectangle x="19" y="120" width="130" height="30" as="alternateBounds" />
          </mxGeometry>
        </mxCell>
        <mxCell id="1tYZ5-ifi8Nl915vDj6M-10" style="edgeStyle=orthogonalEdgeStyle;rounded=0;orthogonalLoop=1;jettySize=auto;html=1;exitX=0.5;exitY=1;exitDx=0;exitDy=0;" edge="1" parent="1tYZ5-ifi8Nl915vDj6M-8" source="1tYZ5-ifi8Nl915vDj6M-6" target="1tYZ5-ifi8Nl915vDj6M-9">
          <mxGeometry relative="1" as="geometry">
            <mxPoint x="81" y="190" as="targetPoint" />
            <Array as="points">
              <mxPoint x="55" y="200" />
              <mxPoint x="55" y="200" />
            </Array>
          </mxGeometry>
        </mxCell>
        <mxCell id="1tYZ5-ifi8Nl915vDj6M-6" value="" style="ellipse;whiteSpace=wrap;html=1;aspect=fixed;fillColor=#000000;" vertex="1" parent="1tYZ5-ifi8Nl915vDj6M-8">
          <mxGeometry x="30" y="65" width="50" height="50" as="geometry" />
        </mxCell>
        <mxCell id="1tYZ5-ifi8Nl915vDj6M-12" style="edgeStyle=orthogonalEdgeStyle;rounded=0;orthogonalLoop=1;jettySize=auto;html=1;entryX=0;entryY=0.5;entryDx=0;entryDy=0;exitX=1;exitY=0.5;exitDx=0;exitDy=0;" edge="1" parent="1tYZ5-ifi8Nl915vDj6M-8" source="1tYZ5-ifi8Nl915vDj6M-9" target="1tYZ5-ifi8Nl915vDj6M-11">
          <mxGeometry relative="1" as="geometry">
            <mxPoint x="160" y="259.66" as="sourcePoint" />
            <mxPoint x="280" y="259.66" as="targetPoint" />
          </mxGeometry>
        </mxCell>
        <mxCell id="1tYZ5-ifi8Nl915vDj6M-16" value="clicar no ícone" style="edgeLabel;html=1;align=center;verticalAlign=middle;resizable=0;points=[];" connectable="0" vertex="1" parent="1tYZ5-ifi8Nl915vDj6M-12">
          <mxGeometry x="0.05" y="-1" relative="1" as="geometry">
            <mxPoint x="-3" y="-1" as="offset" />
          </mxGeometry>
        </mxCell>
        <mxCell id="1tYZ5-ifi8Nl915vDj6M-9" value="Não favoritado" style="rounded=1;whiteSpace=wrap;html=1;" vertex="1" parent="1tYZ5-ifi8Nl915vDj6M-8">
          <mxGeometry x="11" y="230" width="120" height="60" as="geometry" />
        </mxCell>
        <mxCell id="1tYZ5-ifi8Nl915vDj6M-14" style="edgeStyle=orthogonalEdgeStyle;rounded=0;orthogonalLoop=1;jettySize=auto;html=1;" edge="1" parent="1tYZ5-ifi8Nl915vDj6M-8" source="1tYZ5-ifi8Nl915vDj6M-11" target="1tYZ5-ifi8Nl915vDj6M-13">
          <mxGeometry relative="1" as="geometry" />
        </mxCell>
        <mxCell id="1tYZ5-ifi8Nl915vDj6M-17" value="logado" style="edgeLabel;html=1;align=center;verticalAlign=middle;resizable=0;points=[];" connectable="0" vertex="1" parent="1tYZ5-ifi8Nl915vDj6M-14">
          <mxGeometry x="-0.0129" y="-2" relative="1" as="geometry">
            <mxPoint x="-2" as="offset" />
          </mxGeometry>
        </mxCell>
        <mxCell id="1tYZ5-ifi8Nl915vDj6M-18" style="edgeStyle=orthogonalEdgeStyle;rounded=0;orthogonalLoop=1;jettySize=auto;html=1;endArrow=none;startFill=0;" edge="1" parent="1tYZ5-ifi8Nl915vDj6M-8" source="1tYZ5-ifi8Nl915vDj6M-11">
          <mxGeometry relative="1" as="geometry">
            <mxPoint x="321" y="330" as="targetPoint" />
            <Array as="points">
              <mxPoint x="321" y="320" />
              <mxPoint x="321" y="320" />
            </Array>
          </mxGeometry>
        </mxCell>
        <mxCell id="1tYZ5-ifi8Nl915vDj6M-19" value="não logado" style="edgeLabel;html=1;align=center;verticalAlign=middle;resizable=0;points=[];" connectable="0" vertex="1" parent="1tYZ5-ifi8Nl915vDj6M-18">
          <mxGeometry x="-0.1441" relative="1" as="geometry">
            <mxPoint as="offset" />
          </mxGeometry>
        </mxCell>
        <mxCell id="1tYZ5-ifi8Nl915vDj6M-11" value="" style="rhombus;whiteSpace=wrap;html=1;" vertex="1" parent="1tYZ5-ifi8Nl915vDj6M-8">
          <mxGeometry x="296" y="235" width="50" height="50" as="geometry" />
        </mxCell>
        <mxCell id="gRLJeX2S-SunjCOn9-X--6" style="edgeStyle=orthogonalEdgeStyle;rounded=0;orthogonalLoop=1;jettySize=auto;html=1;exitX=0;exitY=0.5;exitDx=0;exitDy=0;entryX=1;entryY=0.5;entryDx=0;entryDy=0;" edge="1" parent="1tYZ5-ifi8Nl915vDj6M-8" source="1tYZ5-ifi8Nl915vDj6M-13" target="4oamercoxOOrcLRIR9Zd-6">
          <mxGeometry relative="1" as="geometry" />
        </mxCell>
        <mxCell id="1tYZ5-ifi8Nl915vDj6M-13" value="Favoritado" style="rounded=1;whiteSpace=wrap;html=1;" vertex="1" parent="1tYZ5-ifi8Nl915vDj6M-8">
          <mxGeometry x="261" y="110" width="120" height="60" as="geometry" />
        </mxCell>
        <mxCell id="4oamercoxOOrcLRIR9Zd-1" value="" style="group;fillColor=#FFFFFF;" connectable="0" vertex="1" parent="1tYZ5-ifi8Nl915vDj6M-8">
          <mxGeometry x="101" y="62.5" width="55" height="55" as="geometry" />
        </mxCell>
        <mxCell id="4oamercoxOOrcLRIR9Zd-2" value="" style="ellipse;whiteSpace=wrap;html=1;aspect=fixed;" vertex="1" parent="4oamercoxOOrcLRIR9Zd-1">
          <mxGeometry width="55.00000000000001" height="55.00000000000001" as="geometry" />
        </mxCell>
        <mxCell id="4oamercoxOOrcLRIR9Zd-3" value="" style="ellipse;whiteSpace=wrap;html=1;aspect=fixed;fillColor=#000000;" vertex="1" parent="4oamercoxOOrcLRIR9Zd-1">
          <mxGeometry x="2.500000000000001" y="2.500000000000001" width="50.00000000000001" height="50.00000000000001" as="geometry" />
        </mxCell>
        <mxCell id="4oamercoxOOrcLRIR9Zd-9" style="edgeStyle=orthogonalEdgeStyle;rounded=0;orthogonalLoop=1;jettySize=auto;html=1;exitX=0.5;exitY=1;exitDx=0;exitDy=0;" edge="1" parent="1tYZ5-ifi8Nl915vDj6M-8" source="4oamercoxOOrcLRIR9Zd-6">
          <mxGeometry relative="1" as="geometry">
            <mxPoint x="101" y="230" as="targetPoint" />
            <Array as="points">
              <mxPoint x="196" y="200" />
              <mxPoint x="101" y="200" />
            </Array>
          </mxGeometry>
        </mxCell>
        <mxCell id="4oamercoxOOrcLRIR9Zd-13" value="clicar no ícone" style="edgeLabel;html=1;align=center;verticalAlign=middle;resizable=0;points=[];" connectable="0" vertex="1" parent="4oamercoxOOrcLRIR9Zd-9">
          <mxGeometry x="0.0476" y="1" relative="1" as="geometry">
            <mxPoint x="3" as="offset" />
          </mxGeometry>
        </mxCell>
        <mxCell id="gRLJeX2S-SunjCOn9-X--3" style="edgeStyle=orthogonalEdgeStyle;rounded=0;orthogonalLoop=1;jettySize=auto;html=1;exitX=0.5;exitY=0;exitDx=0;exitDy=0;entryX=1;entryY=0.5;entryDx=0;entryDy=0;" edge="1" parent="1tYZ5-ifi8Nl915vDj6M-8" source="4oamercoxOOrcLRIR9Zd-6" target="4oamercoxOOrcLRIR9Zd-2">
          <mxGeometry relative="1" as="geometry" />
        </mxCell>
        <mxCell id="gRLJeX2S-SunjCOn9-X--4" value="mantém favoritado" style="edgeLabel;html=1;align=center;verticalAlign=middle;resizable=0;points=[];" connectable="0" vertex="1" parent="gRLJeX2S-SunjCOn9-X--3">
          <mxGeometry x="-0.1823" y="-1" relative="1" as="geometry">
            <mxPoint x="17" y="-12" as="offset" />
          </mxGeometry>
        </mxCell>
        <mxCell id="4oamercoxOOrcLRIR9Zd-6" value="" style="rhombus;whiteSpace=wrap;html=1;" vertex="1" parent="1tYZ5-ifi8Nl915vDj6M-8">
          <mxGeometry x="170.5" y="115" width="50" height="50" as="geometry" />
        </mxCell>
        <mxCell id="gRLJeX2S-SunjCOn9-X--35" style="edgeStyle=orthogonalEdgeStyle;rounded=0;orthogonalLoop=1;jettySize=auto;html=1;exitX=1;exitY=0.5;exitDx=0;exitDy=0;endArrow=none;startFill=0;" edge="1" parent="1tYZ5-ifi8Nl915vDj6M-8" source="gRLJeX2S-SunjCOn9-X--8">
          <mxGeometry relative="1" as="geometry">
            <mxPoint x="401" y="430" as="targetPoint" />
          </mxGeometry>
        </mxCell>
        <mxCell id="gRLJeX2S-SunjCOn9-X--36" value="Não realizado" style="edgeLabel;html=1;align=center;verticalAlign=middle;resizable=0;points=[];" connectable="0" vertex="1" parent="gRLJeX2S-SunjCOn9-X--35">
          <mxGeometry x="0.0224" y="-1" relative="1" as="geometry">
            <mxPoint x="4" y="13" as="offset" />
          </mxGeometry>
        </mxCell>
        <mxCell id="gRLJeX2S-SunjCOn9-X--8" value="Aguardando login" style="rounded=1;whiteSpace=wrap;html=1;" vertex="1" parent="1tYZ5-ifi8Nl915vDj6M-8">
          <mxGeometry x="261" y="330" width="120" height="60" as="geometry" />
        </mxCell>
        <mxCell id="gRLJeX2S-SunjCOn9-X--26" style="edgeStyle=orthogonalEdgeStyle;rounded=0;orthogonalLoop=1;jettySize=auto;html=1;exitX=1;exitY=0.5;exitDx=0;exitDy=0;entryX=1;entryY=0.5;entryDx=0;entryDy=0;" edge="1" parent="1tYZ5-ifi8Nl915vDj6M-8" source="gRLJeX2S-SunjCOn9-X--8" target="1tYZ5-ifi8Nl915vDj6M-13">
          <mxGeometry relative="1" as="geometry">
            <mxPoint x="445" y="335" as="sourcePoint" />
          </mxGeometry>
        </mxCell>
        <mxCell id="gRLJeX2S-SunjCOn9-X--32" value="Realizado" style="edgeLabel;html=1;align=center;verticalAlign=middle;resizable=0;points=[];" connectable="0" vertex="1" parent="gRLJeX2S-SunjCOn9-X--26">
          <mxGeometry x="-0.2282" y="2" relative="1" as="geometry">
            <mxPoint y="-20" as="offset" />
          </mxGeometry>
        </mxCell>
        <mxCell id="gRLJeX2S-SunjCOn9-X--37" style="edgeStyle=orthogonalEdgeStyle;rounded=0;orthogonalLoop=1;jettySize=auto;html=1;exitX=0;exitY=0.25;exitDx=0;exitDy=0;entryX=0.052;entryY=0.973;entryDx=0;entryDy=0;entryPerimeter=0;" edge="1" parent="1tYZ5-ifi8Nl915vDj6M-8" source="gRLJeX2S-SunjCOn9-X--8" target="gRLJeX2S-SunjCOn9-X--8">
          <mxGeometry relative="1" as="geometry" />
        </mxCell>
        <mxCell id="1tYZ5-ifi8Nl915vDj6M-21" value="&lt;h1 style=&quot;margin-top: 0px;&quot;&gt;Diagrama de Estados&lt;/h1&gt;&lt;p&gt;Alana, Danielle e Davi&amp;nbsp; | Pinacoteca&lt;/p&gt;" style="text;html=1;whiteSpace=wrap;overflow=hidden;rounded=0;align=center;" vertex="1" parent="1">
          <mxGeometry x="284" y="10" width="260" height="80" as="geometry" />
        </mxCell>
        <mxCell id="1tYZ5-ifi8Nl915vDj6M-22" value="Comentando obra" style="swimlane;whiteSpace=wrap;html=1;" vertex="1" parent="1">
          <mxGeometry x="250" y="120" width="560" height="430" as="geometry">
            <mxRectangle x="429" y="120" width="140" height="30" as="alternateBounds" />
          </mxGeometry>
        </mxCell>
        <mxCell id="1tYZ5-ifi8Nl915vDj6M-39" value="" style="group" connectable="0" vertex="1" parent="1tYZ5-ifi8Nl915vDj6M-22">
          <mxGeometry x="185" y="80" width="55" height="55" as="geometry" />
        </mxCell>
        <mxCell id="1tYZ5-ifi8Nl915vDj6M-38" value="" style="ellipse;whiteSpace=wrap;html=1;aspect=fixed;" vertex="1" parent="1tYZ5-ifi8Nl915vDj6M-39">
          <mxGeometry width="55.00000000000001" height="55.00000000000001" as="geometry" />
        </mxCell>
        <mxCell id="1tYZ5-ifi8Nl915vDj6M-36" value="" style="ellipse;whiteSpace=wrap;html=1;aspect=fixed;fillColor=#000000;" vertex="1" parent="1tYZ5-ifi8Nl915vDj6M-39">
          <mxGeometry x="2.500000000000001" y="2.500000000000001" width="50.00000000000001" height="50.00000000000001" as="geometry" />
        </mxCell>
        <mxCell id="1tYZ5-ifi8Nl915vDj6M-23" style="edgeStyle=orthogonalEdgeStyle;rounded=0;orthogonalLoop=1;jettySize=auto;html=1;" edge="1" parent="1tYZ5-ifi8Nl915vDj6M-22" source="1tYZ5-ifi8Nl915vDj6M-24" target="1tYZ5-ifi8Nl915vDj6M-27">
          <mxGeometry relative="1" as="geometry" />
        </mxCell>
        <mxCell id="1tYZ5-ifi8Nl915vDj6M-24" value="" style="ellipse;whiteSpace=wrap;html=1;aspect=fixed;fillColor=#000000;" vertex="1" parent="1tYZ5-ifi8Nl915vDj6M-22">
          <mxGeometry x="55" y="67.5" width="50" height="50" as="geometry" />
        </mxCell>
        <mxCell id="1tYZ5-ifi8Nl915vDj6M-25" style="edgeStyle=orthogonalEdgeStyle;rounded=0;orthogonalLoop=1;jettySize=auto;html=1;entryX=0;entryY=0.5;entryDx=0;entryDy=0;exitX=1;exitY=0.5;exitDx=0;exitDy=0;" edge="1" parent="1tYZ5-ifi8Nl915vDj6M-22" source="1tYZ5-ifi8Nl915vDj6M-27" target="1tYZ5-ifi8Nl915vDj6M-32">
          <mxGeometry relative="1" as="geometry">
            <mxPoint x="160" y="259.66" as="sourcePoint" />
            <mxPoint x="280" y="259.66" as="targetPoint" />
          </mxGeometry>
        </mxCell>
        <mxCell id="1tYZ5-ifi8Nl915vDj6M-26" value="Clicar em enviar" style="edgeLabel;html=1;align=center;verticalAlign=middle;resizable=0;points=[];" connectable="0" vertex="1" parent="1tYZ5-ifi8Nl915vDj6M-25">
          <mxGeometry x="0.05" y="-1" relative="1" as="geometry">
            <mxPoint x="-3" y="-1" as="offset" />
          </mxGeometry>
        </mxCell>
        <mxCell id="1tYZ5-ifi8Nl915vDj6M-27" value="Comentário em edição" style="rounded=1;whiteSpace=wrap;html=1;" vertex="1" parent="1tYZ5-ifi8Nl915vDj6M-22">
          <mxGeometry x="20" y="295" width="120" height="60" as="geometry" />
        </mxCell>
        <mxCell id="1tYZ5-ifi8Nl915vDj6M-28" style="edgeStyle=orthogonalEdgeStyle;rounded=0;orthogonalLoop=1;jettySize=auto;html=1;exitX=0.5;exitY=0;exitDx=0;exitDy=0;entryX=0;entryY=0.5;entryDx=0;entryDy=0;" edge="1" parent="1tYZ5-ifi8Nl915vDj6M-22" source="1tYZ5-ifi8Nl915vDj6M-32" target="1tYZ5-ifi8Nl915vDj6M-35">
          <mxGeometry relative="1" as="geometry" />
        </mxCell>
        <mxCell id="1tYZ5-ifi8Nl915vDj6M-29" value="Logado" style="edgeLabel;html=1;align=center;verticalAlign=middle;resizable=0;points=[];" connectable="0" vertex="1" parent="1tYZ5-ifi8Nl915vDj6M-28">
          <mxGeometry x="-0.0129" y="-2" relative="1" as="geometry">
            <mxPoint x="-2" y="34" as="offset" />
          </mxGeometry>
        </mxCell>
        <mxCell id="kvhOGvzOZJDrANvMpFtQ-65" style="edgeStyle=orthogonalEdgeStyle;rounded=0;orthogonalLoop=1;jettySize=auto;html=1;endArrow=classic;startFill=0;entryX=0;entryY=0.5;entryDx=0;entryDy=0;endFill=1;exitX=0.5;exitY=1;exitDx=0;exitDy=0;" edge="1" parent="1tYZ5-ifi8Nl915vDj6M-22" source="1tYZ5-ifi8Nl915vDj6M-32" target="kvhOGvzOZJDrANvMpFtQ-71">
          <mxGeometry relative="1" as="geometry">
            <mxPoint x="300" y="430" as="targetPoint" />
            <Array as="points">
              <mxPoint x="300" y="410" />
              <mxPoint x="340" y="410" />
              <mxPoint x="340" y="350" />
            </Array>
          </mxGeometry>
        </mxCell>
        <mxCell id="kvhOGvzOZJDrANvMpFtQ-66" value="Não logado" style="edgeLabel;html=1;align=center;verticalAlign=middle;resizable=0;points=[];" vertex="1" connectable="0" parent="kvhOGvzOZJDrANvMpFtQ-65">
          <mxGeometry x="-0.1305" y="2" relative="1" as="geometry">
            <mxPoint x="-31" y="-28" as="offset" />
          </mxGeometry>
        </mxCell>
        <mxCell id="1tYZ5-ifi8Nl915vDj6M-32" value="" style="rhombus;whiteSpace=wrap;html=1;" vertex="1" parent="1tYZ5-ifi8Nl915vDj6M-22">
          <mxGeometry x="275" y="300" width="50" height="50" as="geometry" />
        </mxCell>
        <mxCell id="kvhOGvzOZJDrANvMpFtQ-63" style="edgeStyle=orthogonalEdgeStyle;rounded=0;orthogonalLoop=1;jettySize=auto;html=1;" edge="1" parent="1tYZ5-ifi8Nl915vDj6M-22" source="1tYZ5-ifi8Nl915vDj6M-35" target="kvhOGvzOZJDrANvMpFtQ-55">
          <mxGeometry relative="1" as="geometry" />
        </mxCell>
        <mxCell id="1tYZ5-ifi8Nl915vDj6M-35" value="Comentário publicado" style="rounded=1;whiteSpace=wrap;html=1;" vertex="1" parent="1tYZ5-ifi8Nl915vDj6M-22">
          <mxGeometry x="365" y="185" width="120" height="60" as="geometry" />
        </mxCell>
        <mxCell id="kvhOGvzOZJDrANvMpFtQ-56" style="edgeStyle=orthogonalEdgeStyle;rounded=0;orthogonalLoop=1;jettySize=auto;html=1;entryX=0.5;entryY=0;entryDx=0;entryDy=0;exitX=0.5;exitY=0;exitDx=0;exitDy=0;" edge="1" parent="1tYZ5-ifi8Nl915vDj6M-22" source="kvhOGvzOZJDrANvMpFtQ-55" target="1tYZ5-ifi8Nl915vDj6M-36">
          <mxGeometry relative="1" as="geometry" />
        </mxCell>
        <mxCell id="kvhOGvzOZJDrANvMpFtQ-57" value="Mantém comentário" style="edgeLabel;html=1;align=center;verticalAlign=middle;resizable=0;points=[];" vertex="1" connectable="0" parent="kvhOGvzOZJDrANvMpFtQ-56">
          <mxGeometry x="0.4514" y="-2" relative="1" as="geometry">
            <mxPoint x="62" y="2" as="offset" />
          </mxGeometry>
        </mxCell>
        <mxCell id="kvhOGvzOZJDrANvMpFtQ-67" style="edgeStyle=orthogonalEdgeStyle;rounded=0;orthogonalLoop=1;jettySize=auto;html=1;entryX=1;entryY=0.5;entryDx=0;entryDy=0;exitX=0;exitY=0.5;exitDx=0;exitDy=0;" edge="1" parent="1tYZ5-ifi8Nl915vDj6M-22" source="kvhOGvzOZJDrANvMpFtQ-55" target="kvhOGvzOZJDrANvMpFtQ-64">
          <mxGeometry relative="1" as="geometry">
            <Array as="points">
              <mxPoint x="370" y="110" />
              <mxPoint x="370" y="160" />
              <mxPoint x="260" y="160" />
              <mxPoint x="260" y="240" />
            </Array>
          </mxGeometry>
        </mxCell>
        <mxCell id="kvhOGvzOZJDrANvMpFtQ-68" value="Excluir comentário" style="edgeLabel;html=1;align=center;verticalAlign=middle;resizable=0;points=[];" vertex="1" connectable="0" parent="kvhOGvzOZJDrANvMpFtQ-67">
          <mxGeometry x="0.0192" relative="1" as="geometry">
            <mxPoint x="10" y="5" as="offset" />
          </mxGeometry>
        </mxCell>
        <mxCell id="kvhOGvzOZJDrANvMpFtQ-55" value="" style="rhombus;whiteSpace=wrap;html=1;" vertex="1" parent="1tYZ5-ifi8Nl915vDj6M-22">
          <mxGeometry x="400" y="85" width="50" height="50" as="geometry" />
        </mxCell>
        <mxCell id="kvhOGvzOZJDrANvMpFtQ-70" style="edgeStyle=orthogonalEdgeStyle;rounded=0;orthogonalLoop=1;jettySize=auto;html=1;" edge="1" parent="1tYZ5-ifi8Nl915vDj6M-22" source="kvhOGvzOZJDrANvMpFtQ-64" target="1tYZ5-ifi8Nl915vDj6M-36">
          <mxGeometry relative="1" as="geometry" />
        </mxCell>
        <mxCell id="kvhOGvzOZJDrANvMpFtQ-64" value="Comentário excluído" style="rounded=1;whiteSpace=wrap;html=1;" vertex="1" parent="1tYZ5-ifi8Nl915vDj6M-22">
          <mxGeometry x="120" y="210" width="120" height="60" as="geometry" />
        </mxCell>
        <mxCell id="kvhOGvzOZJDrANvMpFtQ-72" style="edgeStyle=orthogonalEdgeStyle;rounded=0;orthogonalLoop=1;jettySize=auto;html=1;exitX=1;exitY=0.5;exitDx=0;exitDy=0;endArrow=none;startFill=0;" edge="1" parent="1tYZ5-ifi8Nl915vDj6M-22" source="kvhOGvzOZJDrANvMpFtQ-71">
          <mxGeometry relative="1" as="geometry">
            <mxPoint x="520" y="430" as="targetPoint" />
            <Array as="points">
              <mxPoint x="520" y="350" />
              <mxPoint x="520" y="430" />
            </Array>
          </mxGeometry>
        </mxCell>
        <mxCell id="kvhOGvzOZJDrANvMpFtQ-73" value="Náo realizado" style="edgeLabel;html=1;align=center;verticalAlign=middle;resizable=0;points=[];" connectable="0" vertex="1" parent="kvhOGvzOZJDrANvMpFtQ-72">
          <mxGeometry x="0.41" y="1" relative="1" as="geometry">
            <mxPoint x="-5" y="4" as="offset" />
          </mxGeometry>
        </mxCell>
        <mxCell id="kvhOGvzOZJDrANvMpFtQ-74" style="edgeStyle=orthogonalEdgeStyle;rounded=0;orthogonalLoop=1;jettySize=auto;html=1;entryX=0.5;entryY=1;entryDx=0;entryDy=0;" edge="1" parent="1tYZ5-ifi8Nl915vDj6M-22" source="kvhOGvzOZJDrANvMpFtQ-71" target="1tYZ5-ifi8Nl915vDj6M-35">
          <mxGeometry relative="1" as="geometry">
            <mxPoint x="370" y="290" as="targetPoint" />
            <Array as="points">
              <mxPoint x="425" y="300" />
              <mxPoint x="425" y="300" />
            </Array>
          </mxGeometry>
        </mxCell>
        <mxCell id="kvhOGvzOZJDrANvMpFtQ-75" value="Realizado" style="edgeLabel;html=1;align=center;verticalAlign=middle;resizable=0;points=[];" connectable="0" vertex="1" parent="kvhOGvzOZJDrANvMpFtQ-74">
          <mxGeometry x="-0.1677" y="2" relative="1" as="geometry">
            <mxPoint x="1" y="-3" as="offset" />
          </mxGeometry>
        </mxCell>
        <mxCell id="kvhOGvzOZJDrANvMpFtQ-71" value="Aguardando login" style="rounded=1;whiteSpace=wrap;html=1;" vertex="1" parent="1tYZ5-ifi8Nl915vDj6M-22">
          <mxGeometry x="365" y="320" width="120" height="60" as="geometry" />
        </mxCell>
        <mxCell id="kvhOGvzOZJDrANvMpFtQ-76" style="edgeStyle=orthogonalEdgeStyle;rounded=0;orthogonalLoop=1;jettySize=auto;html=1;exitX=0.25;exitY=1;exitDx=0;exitDy=0;entryX=0.75;entryY=1;entryDx=0;entryDy=0;" edge="1" parent="1tYZ5-ifi8Nl915vDj6M-22" source="kvhOGvzOZJDrANvMpFtQ-71" target="kvhOGvzOZJDrANvMpFtQ-71">
          <mxGeometry relative="1" as="geometry" />
        </mxCell>
        <mxCell id="kvhOGvzOZJDrANvMpFtQ-1" value="Denunciando obra" style="swimlane;whiteSpace=wrap;html=1;" vertex="1" parent="1">
          <mxGeometry x="-150" y="580" width="450" height="330" as="geometry">
            <mxRectangle x="19" y="120" width="130" height="30" as="alternateBounds" />
          </mxGeometry>
        </mxCell>
        <mxCell id="kvhOGvzOZJDrANvMpFtQ-30" style="edgeStyle=orthogonalEdgeStyle;rounded=0;orthogonalLoop=1;jettySize=auto;html=1;" edge="1" parent="kvhOGvzOZJDrANvMpFtQ-1" source="kvhOGvzOZJDrANvMpFtQ-22" target="kvhOGvzOZJDrANvMpFtQ-25">
          <mxGeometry relative="1" as="geometry" />
        </mxCell>
        <mxCell id="Qe3Z2H995IpBl_j5Q98--27" value="" style="edgeStyle=orthogonalEdgeStyle;rounded=0;orthogonalLoop=1;jettySize=auto;html=1;" edge="1" parent="kvhOGvzOZJDrANvMpFtQ-1" source="kvhOGvzOZJDrANvMpFtQ-22" target="kvhOGvzOZJDrANvMpFtQ-25">
          <mxGeometry relative="1" as="geometry" />
        </mxCell>
        <mxCell id="kvhOGvzOZJDrANvMpFtQ-53" value="Notificando os administradores" style="edgeLabel;html=1;align=center;verticalAlign=middle;resizable=0;points=[];" vertex="1" connectable="0" parent="Qe3Z2H995IpBl_j5Q98--27">
          <mxGeometry x="-0.15" relative="1" as="geometry">
            <mxPoint as="offset" />
          </mxGeometry>
        </mxCell>
        <mxCell id="kvhOGvzOZJDrANvMpFtQ-22" value="Pendente" style="rounded=1;whiteSpace=wrap;html=1;" vertex="1" parent="kvhOGvzOZJDrANvMpFtQ-1">
          <mxGeometry x="53.54" y="150" width="120" height="60" as="geometry" />
        </mxCell>
        <mxCell id="kvhOGvzOZJDrANvMpFtQ-23" style="edgeStyle=orthogonalEdgeStyle;rounded=0;orthogonalLoop=1;jettySize=auto;html=1;" edge="1" parent="kvhOGvzOZJDrANvMpFtQ-1" source="Qe3Z2H995IpBl_j5Q98--3" target="kvhOGvzOZJDrANvMpFtQ-22">
          <mxGeometry relative="1" as="geometry" />
        </mxCell>
        <mxCell id="kvhOGvzOZJDrANvMpFtQ-24" value="Enviando a denúncia" style="edgeLabel;html=1;align=center;verticalAlign=middle;resizable=0;points=[];" vertex="1" connectable="0" parent="kvhOGvzOZJDrANvMpFtQ-23">
          <mxGeometry x="0.1389" y="2" relative="1" as="geometry">
            <mxPoint x="-7" y="-10" as="offset" />
          </mxGeometry>
        </mxCell>
        <mxCell id="Qe3Z2H995IpBl_j5Q98--3" value="" style="ellipse;whiteSpace=wrap;html=1;aspect=fixed;fillColor=#000000;" vertex="1" parent="kvhOGvzOZJDrANvMpFtQ-1">
          <mxGeometry x="88.53999999999999" y="45" width="50" height="50" as="geometry" />
        </mxCell>
        <mxCell id="Qe3Z2H995IpBl_j5Q98--4" value="" style="group;fillColor=#FFFFFF;" connectable="0" vertex="1" parent="kvhOGvzOZJDrANvMpFtQ-1">
          <mxGeometry x="185.04" y="42.5" width="55" height="55" as="geometry" />
        </mxCell>
        <mxCell id="Qe3Z2H995IpBl_j5Q98--5" value="" style="ellipse;whiteSpace=wrap;html=1;aspect=fixed;" vertex="1" parent="Qe3Z2H995IpBl_j5Q98--4">
          <mxGeometry width="55.00000000000001" height="55.00000000000001" as="geometry" />
        </mxCell>
        <mxCell id="Qe3Z2H995IpBl_j5Q98--6" value="" style="ellipse;whiteSpace=wrap;html=1;aspect=fixed;fillColor=#000000;" vertex="1" parent="Qe3Z2H995IpBl_j5Q98--4">
          <mxGeometry x="2.500000000000001" y="2.500000000000001" width="50.00000000000001" height="50.00000000000001" as="geometry" />
        </mxCell>
        <mxCell id="kvhOGvzOZJDrANvMpFtQ-28" style="edgeStyle=orthogonalEdgeStyle;rounded=0;orthogonalLoop=1;jettySize=auto;html=1;" edge="1" parent="kvhOGvzOZJDrANvMpFtQ-1" source="kvhOGvzOZJDrANvMpFtQ-25" target="kvhOGvzOZJDrANvMpFtQ-27">
          <mxGeometry relative="1" as="geometry" />
        </mxCell>
        <mxCell id="kvhOGvzOZJDrANvMpFtQ-45" value="Avaliando&amp;nbsp; a denúncia" style="edgeLabel;html=1;align=center;verticalAlign=middle;resizable=0;points=[];" vertex="1" connectable="0" parent="kvhOGvzOZJDrANvMpFtQ-28">
          <mxGeometry x="0.0909" y="1" relative="1" as="geometry">
            <mxPoint x="-10" y="1" as="offset" />
          </mxGeometry>
        </mxCell>
        <mxCell id="kvhOGvzOZJDrANvMpFtQ-25" value="Em revisão" style="rounded=1;whiteSpace=wrap;html=1;" vertex="1" parent="kvhOGvzOZJDrANvMpFtQ-1">
          <mxGeometry x="53.54" y="250" width="120" height="60" as="geometry" />
        </mxCell>
        <mxCell id="kvhOGvzOZJDrANvMpFtQ-39" style="edgeStyle=orthogonalEdgeStyle;rounded=0;orthogonalLoop=1;jettySize=auto;html=1;exitX=1;exitY=0.5;exitDx=0;exitDy=0;entryX=0.5;entryY=1;entryDx=0;entryDy=0;" edge="1" parent="kvhOGvzOZJDrANvMpFtQ-1" source="kvhOGvzOZJDrANvMpFtQ-27" target="kvhOGvzOZJDrANvMpFtQ-33">
          <mxGeometry relative="1" as="geometry">
            <Array as="points">
              <mxPoint x="410" y="280" />
              <mxPoint x="410" y="200" />
              <mxPoint x="350" y="200" />
            </Array>
          </mxGeometry>
        </mxCell>
        <mxCell id="kvhOGvzOZJDrANvMpFtQ-40" style="edgeStyle=orthogonalEdgeStyle;rounded=0;orthogonalLoop=1;jettySize=auto;html=1;entryX=0.5;entryY=1;entryDx=0;entryDy=0;exitX=0.5;exitY=0;exitDx=0;exitDy=0;" edge="1" parent="kvhOGvzOZJDrANvMpFtQ-1" source="kvhOGvzOZJDrANvMpFtQ-27" target="kvhOGvzOZJDrANvMpFtQ-32">
          <mxGeometry relative="1" as="geometry" />
        </mxCell>
        <mxCell id="kvhOGvzOZJDrANvMpFtQ-27" value="" style="rhombus;whiteSpace=wrap;html=1;" vertex="1" parent="kvhOGvzOZJDrANvMpFtQ-1">
          <mxGeometry x="332.54" y="255" width="50" height="50" as="geometry" />
        </mxCell>
        <mxCell id="kvhOGvzOZJDrANvMpFtQ-42" style="edgeStyle=orthogonalEdgeStyle;rounded=0;orthogonalLoop=1;jettySize=auto;html=1;entryX=1;entryY=0.5;entryDx=0;entryDy=0;" edge="1" parent="kvhOGvzOZJDrANvMpFtQ-1" source="kvhOGvzOZJDrANvMpFtQ-32" target="Qe3Z2H995IpBl_j5Q98--6">
          <mxGeometry relative="1" as="geometry">
            <Array as="points">
              <mxPoint x="239.54" y="110" />
              <mxPoint x="363.54" y="110" />
              <mxPoint x="363.54" y="70" />
            </Array>
          </mxGeometry>
        </mxCell>
        <mxCell id="kvhOGvzOZJDrANvMpFtQ-32" value="Aprovado" style="rounded=1;whiteSpace=wrap;html=1;" vertex="1" parent="kvhOGvzOZJDrANvMpFtQ-1">
          <mxGeometry x="193.54" y="130" width="92.92" height="50" as="geometry" />
        </mxCell>
        <mxCell id="kvhOGvzOZJDrANvMpFtQ-41" style="edgeStyle=orthogonalEdgeStyle;rounded=0;orthogonalLoop=1;jettySize=auto;html=1;entryX=1;entryY=0.5;entryDx=0;entryDy=0;exitX=0.5;exitY=0;exitDx=0;exitDy=0;" edge="1" parent="kvhOGvzOZJDrANvMpFtQ-1" source="kvhOGvzOZJDrANvMpFtQ-33" target="Qe3Z2H995IpBl_j5Q98--6">
          <mxGeometry relative="1" as="geometry">
            <Array as="points">
              <mxPoint x="363.54" y="130" />
              <mxPoint x="363.54" y="70" />
            </Array>
          </mxGeometry>
        </mxCell>
        <mxCell id="kvhOGvzOZJDrANvMpFtQ-50" value="&lt;div&gt;notificando&amp;nbsp;&lt;/div&gt;&lt;div&gt;o denunciante&lt;/div&gt;" style="edgeLabel;html=1;align=center;verticalAlign=middle;resizable=0;points=[];" vertex="1" connectable="0" parent="kvhOGvzOZJDrANvMpFtQ-41">
          <mxGeometry x="0.2696" y="-3" relative="1" as="geometry">
            <mxPoint x="-7" y="1" as="offset" />
          </mxGeometry>
        </mxCell>
        <mxCell id="kvhOGvzOZJDrANvMpFtQ-33" value="Rejeitado" style="rounded=1;whiteSpace=wrap;html=1;" vertex="1" parent="kvhOGvzOZJDrANvMpFtQ-1">
          <mxGeometry x="303.54" y="130" width="92.92" height="50" as="geometry" />
        </mxCell>
        <mxCell id="Qe3Z2H995IpBl_j5Q98--7" value="Denunciando comentário" style="swimlane;whiteSpace=wrap;html=1;" vertex="1" parent="1">
          <mxGeometry x="320" y="580" width="390" height="330" as="geometry">
            <mxRectangle x="19" y="120" width="130" height="30" as="alternateBounds" />
          </mxGeometry>
        </mxCell>
        <mxCell id="Qe3Z2H995IpBl_j5Q98--16" value="Notificando os administradores" style="edgeStyle=orthogonalEdgeStyle;rounded=0;orthogonalLoop=1;jettySize=auto;html=1;exitX=0.5;exitY=1;exitDx=0;exitDy=0;entryX=0;entryY=0.5;entryDx=0;entryDy=0;" edge="1" parent="Qe3Z2H995IpBl_j5Q98--7" source="Qe3Z2H995IpBl_j5Q98--8" target="Qe3Z2H995IpBl_j5Q98--15">
          <mxGeometry x="-0.7143" y="20" relative="1" as="geometry">
            <mxPoint as="offset" />
          </mxGeometry>
        </mxCell>
        <mxCell id="Qe3Z2H995IpBl_j5Q98--8" value="Pendente" style="rounded=1;whiteSpace=wrap;html=1;" vertex="1" parent="Qe3Z2H995IpBl_j5Q98--7">
          <mxGeometry x="10" y="160" width="100" height="60" as="geometry" />
        </mxCell>
        <mxCell id="Qe3Z2H995IpBl_j5Q98--9" style="edgeStyle=orthogonalEdgeStyle;rounded=0;orthogonalLoop=1;jettySize=auto;html=1;" edge="1" parent="Qe3Z2H995IpBl_j5Q98--7" source="Qe3Z2H995IpBl_j5Q98--11" target="Qe3Z2H995IpBl_j5Q98--8">
          <mxGeometry relative="1" as="geometry" />
        </mxCell>
        <mxCell id="Qe3Z2H995IpBl_j5Q98--10" value="Enviando a denúncia" style="edgeLabel;html=1;align=center;verticalAlign=middle;resizable=0;points=[];" connectable="0" vertex="1" parent="Qe3Z2H995IpBl_j5Q98--9">
          <mxGeometry x="0.1389" y="2" relative="1" as="geometry">
            <mxPoint y="1" as="offset" />
          </mxGeometry>
        </mxCell>
        <mxCell id="Qe3Z2H995IpBl_j5Q98--11" value="" style="ellipse;whiteSpace=wrap;html=1;aspect=fixed;fillColor=#000000;" vertex="1" parent="Qe3Z2H995IpBl_j5Q98--7">
          <mxGeometry x="30" y="45" width="50" height="50" as="geometry" />
        </mxCell>
        <mxCell id="Qe3Z2H995IpBl_j5Q98--12" value="" style="group;fillColor=#FFFFFF;" connectable="0" vertex="1" parent="Qe3Z2H995IpBl_j5Q98--7">
          <mxGeometry x="130" y="40" width="55" height="55" as="geometry" />
        </mxCell>
        <mxCell id="Qe3Z2H995IpBl_j5Q98--13" value="" style="ellipse;whiteSpace=wrap;html=1;aspect=fixed;" vertex="1" parent="Qe3Z2H995IpBl_j5Q98--12">
          <mxGeometry width="55.00000000000001" height="55.00000000000001" as="geometry" />
        </mxCell>
        <mxCell id="Qe3Z2H995IpBl_j5Q98--14" value="" style="ellipse;whiteSpace=wrap;html=1;aspect=fixed;fillColor=#000000;" vertex="1" parent="Qe3Z2H995IpBl_j5Q98--12">
          <mxGeometry x="2.500000000000001" y="2.500000000000001" width="50.00000000000001" height="50.00000000000001" as="geometry" />
        </mxCell>
        <mxCell id="Qe3Z2H995IpBl_j5Q98--38" style="edgeStyle=orthogonalEdgeStyle;rounded=0;orthogonalLoop=1;jettySize=auto;html=1;exitX=1;exitY=0.5;exitDx=0;exitDy=0;entryX=0;entryY=0.5;entryDx=0;entryDy=0;" edge="1" parent="Qe3Z2H995IpBl_j5Q98--7" source="Qe3Z2H995IpBl_j5Q98--15" target="Qe3Z2H995IpBl_j5Q98--19">
          <mxGeometry relative="1" as="geometry" />
        </mxCell>
        <mxCell id="Qe3Z2H995IpBl_j5Q98--44" value="Avaliando&amp;nbsp;&amp;nbsp;&lt;div&gt;a denúncia&lt;/div&gt;" style="edgeStyle=orthogonalEdgeStyle;rounded=0;orthogonalLoop=1;jettySize=auto;html=1;" edge="1" parent="Qe3Z2H995IpBl_j5Q98--7" source="Qe3Z2H995IpBl_j5Q98--15" target="Qe3Z2H995IpBl_j5Q98--19">
          <mxGeometry relative="1" as="geometry" />
        </mxCell>
        <mxCell id="Qe3Z2H995IpBl_j5Q98--15" value="Em revisão" style="rounded=1;whiteSpace=wrap;html=1;" vertex="1" parent="Qe3Z2H995IpBl_j5Q98--7">
          <mxGeometry x="120" y="260" width="111.5" height="60" as="geometry" />
        </mxCell>
        <mxCell id="Qe3Z2H995IpBl_j5Q98--41" style="edgeStyle=orthogonalEdgeStyle;rounded=0;orthogonalLoop=1;jettySize=auto;html=1;exitX=0.5;exitY=0;exitDx=0;exitDy=0;entryX=1;entryY=0.5;entryDx=0;entryDy=0;" edge="1" parent="Qe3Z2H995IpBl_j5Q98--7" source="Qe3Z2H995IpBl_j5Q98--17" target="Qe3Z2H995IpBl_j5Q98--13">
          <mxGeometry relative="1" as="geometry" />
        </mxCell>
        <mxCell id="kvhOGvzOZJDrANvMpFtQ-51" value="&lt;div&gt;notificando&amp;nbsp;&lt;/div&gt;&lt;div&gt;o denunciante&lt;/div&gt;" style="edgeLabel;html=1;align=center;verticalAlign=middle;resizable=0;points=[];" vertex="1" connectable="0" parent="Qe3Z2H995IpBl_j5Q98--41">
          <mxGeometry x="0.6035" y="-1" relative="1" as="geometry">
            <mxPoint x="19" y="1" as="offset" />
          </mxGeometry>
        </mxCell>
        <mxCell id="Qe3Z2H995IpBl_j5Q98--17" value="Aprovado" style="rounded=1;whiteSpace=wrap;html=1;" vertex="1" parent="Qe3Z2H995IpBl_j5Q98--7">
          <mxGeometry x="250" y="140" width="91.5" height="50" as="geometry" />
        </mxCell>
        <mxCell id="Qe3Z2H995IpBl_j5Q98--40" style="edgeStyle=orthogonalEdgeStyle;rounded=0;orthogonalLoop=1;jettySize=auto;html=1;exitX=0.5;exitY=0;exitDx=0;exitDy=0;entryX=1;entryY=0.5;entryDx=0;entryDy=0;" edge="1" parent="Qe3Z2H995IpBl_j5Q98--7" source="Qe3Z2H995IpBl_j5Q98--18" target="Qe3Z2H995IpBl_j5Q98--13">
          <mxGeometry relative="1" as="geometry">
            <Array as="points">
              <mxPoint x="185" y="117" />
              <mxPoint x="296" y="117" />
              <mxPoint x="296" y="67" />
            </Array>
          </mxGeometry>
        </mxCell>
        <mxCell id="kvhOGvzOZJDrANvMpFtQ-52" value="&lt;div&gt;notificando&amp;nbsp;&lt;/div&gt;&lt;div&gt;o denunciante&lt;/div&gt;" style="edgeLabel;html=1;align=center;verticalAlign=middle;resizable=0;points=[];" vertex="1" connectable="0" parent="Qe3Z2H995IpBl_j5Q98--40">
          <mxGeometry x="0.408" y="2" relative="1" as="geometry">
            <mxPoint x="-32" y="-2" as="offset" />
          </mxGeometry>
        </mxCell>
        <mxCell id="Qe3Z2H995IpBl_j5Q98--18" value="Rejeitado" style="rounded=1;whiteSpace=wrap;html=1;" vertex="1" parent="Qe3Z2H995IpBl_j5Q98--7">
          <mxGeometry x="138.25" y="140" width="93.25" height="50" as="geometry" />
        </mxCell>
        <mxCell id="Qe3Z2H995IpBl_j5Q98--39" style="edgeStyle=orthogonalEdgeStyle;rounded=0;orthogonalLoop=1;jettySize=auto;html=1;exitX=0.5;exitY=0;exitDx=0;exitDy=0;entryX=0.5;entryY=1;entryDx=0;entryDy=0;" edge="1" parent="Qe3Z2H995IpBl_j5Q98--7" source="Qe3Z2H995IpBl_j5Q98--19" target="Qe3Z2H995IpBl_j5Q98--18">
          <mxGeometry relative="1" as="geometry">
            <Array as="points">
              <mxPoint x="348" y="240" />
              <mxPoint x="185" y="240" />
            </Array>
          </mxGeometry>
        </mxCell>
        <mxCell id="Qe3Z2H995IpBl_j5Q98--43" style="edgeStyle=orthogonalEdgeStyle;rounded=0;orthogonalLoop=1;jettySize=auto;html=1;exitX=1;exitY=0.5;exitDx=0;exitDy=0;entryX=0.5;entryY=1;entryDx=0;entryDy=0;" edge="1" parent="Qe3Z2H995IpBl_j5Q98--7" source="Qe3Z2H995IpBl_j5Q98--19" target="Qe3Z2H995IpBl_j5Q98--17">
          <mxGeometry relative="1" as="geometry">
            <Array as="points">
              <mxPoint x="380" y="290" />
              <mxPoint x="380" y="228" />
              <mxPoint x="296" y="228" />
            </Array>
          </mxGeometry>
        </mxCell>
        <mxCell id="Qe3Z2H995IpBl_j5Q98--19" value="" style="rhombus;whiteSpace=wrap;html=1;" vertex="1" parent="Qe3Z2H995IpBl_j5Q98--7">
          <mxGeometry x="320" y="265" width="55" height="50" as="geometry" />
        </mxCell>
      </root>
    </mxGraphModel>
  </diagram>
</mxfile>
